<?xml version="1.0" encoding="UTF-8" standalone="no"?><!-- Generator: Gravit.io -->
<svg style="isolation:isolate" height="800pt" viewBox="0 0 800 800" width="800pt" xmlns="http://www.w3.org/2000/svg">
    <defs>
        <clipPath id="_clipPath_fugEFPHSCTCV0eO3pylOuXrWJKN4AxKj">
            <rect height="800" width="800" />
        </clipPath>
    </defs>
    <g clip-path="url(#_clipPath_fugEFPHSCTCV0eO3pylOuXrWJKN4AxKj)">
        <path d=" M 373.5 0.7 C 360.2 2.1 341 5.4 327.2 8.5 C 259.8 23.5 188.9 64.1 134 119.1 C 56.5 196.8 11.7 281.8 1.5 371 C -0.9 391.1 -0.1 438.7 2.9 460.7 C 14 542 42.9 612.4 90.2 673.5 C 102.6 689.5 128.5 715.3 143.1 726.3 C 194.6 764.8 259 787.6 338.5 795.5 C 392.6 800.9 437.9 799.4 480 791 C 519.8 782.9 553 770.8 586 752.3 C 620.2 733.1 646.9 712.3 676.2 682.1 C 745.5 610.7 785.2 535.1 797.7 450.5 C 800.2 433.3 800.2 381.6 797.7 361 C 784.8 256.7 735.8 164.1 658.5 97.6 C 634.7 77.1 618.6 65.7 591.5 50.1 C 558.5 31.1 518 15.7 479.5 7.6 C 452.7 2 439.6 0.7 407.5 0.5 C 391 0.3 375.7 0.4 373.5 0.7 Z  M 417.8 122.1 C 478.5 128.7 539.3 161.6 593.6 217.2 C 627 251.4 649.4 287.9 662.8 330.1 C 670.7 354.7 673.8 373.9 674.7 401.6 C 677.7 499.9 637.3 590.8 570.8 635.2 C 540.2 655.7 500.3 668.7 450 674.6 C 431.4 676.8 375.8 677.2 360 675.2 C 298.5 667.5 250 644.9 208.3 604.7 C 160.2 558.2 133.2 503.7 126.3 439.1 C 124.4 421.2 125 378.4 127.4 361.6 C 135.1 307.5 150.5 266.5 175.5 233 C 218.3 175.7 295.2 131.1 365 123.1 C 370.2 122.5 375.9 121.8 377.5 121.6 C 384.5 120.8 408.8 121.1 417.8 122.1 Z "
                fill="rgb(255,255,255)" />
        <path d=" M 385.5 270.1 C 369.6 272.2 350.1 279.6 335 289.6 C 330.9 292.3 323.4 298.4 318.4 303.3 C 299.1 321.8 287.4 343.5 281.4 371.5 C 278.8 383.6 279 409.5 281.8 422.1 C 287.5 448.3 298 468.4 315.7 487 C 358.4 531.9 426.6 537.5 478.2 500.3 C 488.2 493.1 503.1 477.7 509.9 467.6 C 517.7 456 524.7 440.7 528.2 427.3 C 531.2 416.1 531.4 414.5 531.4 396.5 C 531.5 380 531.2 376.3 529.2 368.5 C 520.9 335.3 503.1 309.6 475.5 291 C 449.6 273.5 417.6 266.1 385.5 270.1 Z "
                fill="rgb(255,255,255)" />
    </g>
</svg>