<?xml version="1.0" encoding="UTF-8" standalone="no"?><!-- Generator: Gravit.io -->
<svg style="isolation:isolate" height="24pt" viewBox="0 0 24 24" width="24pt" xmlns="http://www.w3.org/2000/svg">
    <g>
        <path d=" M 11.276 1.092 C 10.913 1.13 10.388 1.22 10.011 1.305 C 8.17 1.715 6.233 2.824 4.733 4.326 C 2.616 6.449 1.393 8.771 1.114 11.208 C 1.048 11.757 1.07 13.057 1.152 13.658 C 1.455 15.879 2.245 17.802 3.537 19.471 C 3.876 19.908 4.583 20.613 4.982 20.914 C 6.389 21.966 8.148 22.588 10.32 22.804 C 11.798 22.952 13.035 22.911 14.185 22.681 C 15.273 22.46 16.18 22.129 17.081 21.624 C 18.015 21.1 18.745 20.531 19.545 19.706 C 21.438 17.756 22.523 15.691 22.864 13.38 C 22.933 12.91 22.933 11.497 22.864 10.935 C 22.512 8.085 21.173 5.556 19.062 3.739 C 18.411 3.179 17.972 2.868 17.231 2.442 C 16.33 1.922 15.223 1.502 14.172 1.281 C 13.44 1.128 13.082 1.092 12.205 1.087 C 11.754 1.081 11.336 1.084 11.276 1.092 Z  M 12.486 4.408 C 14.144 4.589 15.805 5.487 17.289 7.006 C 18.201 7.941 18.813 8.938 19.179 10.09 C 19.395 10.763 19.48 11.287 19.504 12.044 C 19.586 14.729 18.482 17.212 16.666 18.425 C 15.83 18.985 14.74 19.34 13.366 19.501 C 12.858 19.562 11.339 19.572 10.907 19.518 C 9.227 19.307 7.902 18.69 6.763 17.592 C 5.449 16.322 4.712 14.833 4.523 13.068 C 4.471 12.579 4.488 11.41 4.553 10.951 C 4.764 9.473 5.184 8.353 5.867 7.438 C 7.036 5.873 9.137 4.654 11.044 4.436 C 11.186 4.419 11.342 4.4 11.385 4.395 C 11.577 4.373 12.24 4.381 12.486 4.408 Z "
                fill="white" />
        <path d=" M 11.604 8.451 C 11.17 8.509 10.637 8.711 10.224 8.984 C 10.112 9.058 9.907 9.225 9.771 9.358 C 9.244 9.864 8.924 10.457 8.76 11.221 C 8.689 11.552 8.695 12.26 8.771 12.604 C 8.927 13.319 9.214 13.869 9.697 14.377 C 10.864 15.603 12.727 15.756 14.136 14.74 C 14.409 14.543 14.816 14.123 15.002 13.847 C 15.215 13.53 15.407 13.112 15.502 12.746 C 15.584 12.44 15.59 12.396 15.59 11.904 C 15.592 11.454 15.584 11.353 15.529 11.139 C 15.303 10.233 14.816 9.53 14.062 9.022 C 13.355 8.544 12.481 8.342 11.604 8.451 Z "
                fill="white" />
    </g>
</svg>