<svg width="512" height="512" viewBox="0 0 512 512" fill="none" xmlns="http://www.w3.org/2000/svg">
<rect width="512" height="512" rx="256" fill="url(#paint0_linear_1405_5)"/>
<path d="M209.756 357.421C209.7 365.794 206.347 373.825 200.423 379.749C194.449 385.723 186.332 389.083 177.882 389.083C169.425 389.083 161.314 385.723 155.34 379.749C149.36 373.775 146 365.657 146 357.207V153.882C146 145.432 149.36 137.314 155.34 131.34C161.314 125.366 169.425 122 177.882 122C186.332 122 194.449 125.366 200.423 131.34C206.397 137.314 209.757 145.432 209.757 153.882V155.413C190.519 147.523 168.507 161.568 168.507 183.237V329.596C168.507 351.265 190.518 365.31 209.756 357.421Z" fill="url(#paint1_linear_1405_5)"/>
<path d="M302.755 304.049V359.117C302.755 367.566 306.115 375.686 312.095 381.66C318.069 387.634 326.18 390.993 334.637 390.993C343.087 390.993 351.204 387.634 357.178 381.66C363.152 375.686 366.512 367.566 366.512 359.117V155.791C366.512 147.341 363.152 139.224 357.178 133.25C351.204 127.276 343.087 123.91 334.637 123.91C326.18 123.91 318.069 127.276 312.095 133.25C306.115 139.224 302.755 147.341 302.755 155.791V208.784L340.257 230.436C360.257 241.983 360.257 270.85 340.257 282.397L302.755 304.049Z" fill="url(#paint2_linear_1405_5)"/>
<path d="M319.86 242.628C330.564 248.779 330.564 264.221 319.86 270.372L213.972 331.224C203.306 337.354 190 329.654 190 317.351V195.649C190 183.346 203.306 175.646 213.972 181.776L319.86 242.628Z" fill="url(#paint3_linear_1405_5)"/>
<defs>
<linearGradient id="paint0_linear_1405_5" x1="5.50001" y1="555" x2="531" y2="-13.5" gradientUnits="userSpaceOnUse">
<stop stop-color="#312349"/>
<stop offset="1" stop-color="#102125"/>
</linearGradient>
<linearGradient id="paint1_linear_1405_5" x1="367" y1="122" x2="249.821" y2="430.442" gradientUnits="userSpaceOnUse">
<stop stop-color="#FF80CF"/>
<stop offset="1" stop-color="#FFB491"/>
</linearGradient>
<linearGradient id="paint2_linear_1405_5" x1="367" y1="122" x2="249.821" y2="430.442" gradientUnits="userSpaceOnUse">
<stop stop-color="#FF80CF"/>
<stop offset="1" stop-color="#FFB491"/>
</linearGradient>
<linearGradient id="paint3_linear_1405_5" x1="367" y1="122" x2="249.821" y2="430.442" gradientUnits="userSpaceOnUse">
<stop stop-color="#FF80CF"/>
<stop offset="1" stop-color="#FFB491"/>
</linearGradient>
</defs>
</svg>

